<?xml version="1.0" encoding="utf-8"?>
<!-- Generator: Adobe Illustrator 27.8.1, SVG Export Plug-In . SVG Version: 6.00 Build 0)  -->
<svg version="1.1" id="Layer_1" xmlns="http://www.w3.org/2000/svg" xmlns:xlink="http://www.w3.org/1999/xlink" x="0px" y="0px"
	 viewBox="0 0 200 200" style="enable-background:new 0 0 200 200;" xml:space="preserve">
<style type="text/css">
	.st0{fill:#A8DBF6;}
</style>
<circle class="st0" cx="195" cy="5" r="5"/>
<circle class="st0" cx="195" cy="26.11" r="5"/>
<circle class="st0" cx="195" cy="47.22" r="5"/>
<circle class="st0" cx="195" cy="68.33" r="5"/>
<circle class="st0" cx="195" cy="89.44" r="5"/>
<circle class="st0" cx="195" cy="173.89" r="5"/>
<circle class="st0" cx="195" cy="152.78" r="5"/>
<circle class="st0" cx="195" cy="131.67" r="5"/>
<circle class="st0" cx="195" cy="110.56" r="5"/>
<circle class="st0" cx="195" cy="195" r="5"/>
<circle class="st0" cx="5" cy="195" r="5"/>
<circle class="st0" cx="173.89" cy="26.11" r="5"/>
<circle class="st0" cx="173.89" cy="47.22" r="5"/>
<circle class="st0" cx="173.89" cy="68.33" r="5"/>
<circle class="st0" cx="173.89" cy="89.44" r="5"/>
<circle class="st0" cx="173.89" cy="173.89" r="5"/>
<circle class="st0" cx="173.89" cy="152.78" r="5"/>
<circle class="st0" cx="173.89" cy="131.67" r="5"/>
<circle class="st0" cx="173.89" cy="110.56" r="5"/>
<circle class="st0" cx="173.89" cy="195" r="5"/>
<circle class="st0" cx="26.11" cy="195" r="5"/>
<circle class="st0" cx="47.22" cy="195" r="5"/>
<circle class="st0" cx="68.33" cy="195" r="5"/>
<circle class="st0" cx="152.78" cy="195" r="5"/>
<circle class="st0" cx="131.67" cy="195" r="5"/>
<circle class="st0" cx="110.56" cy="195" r="5"/>
<circle class="st0" cx="89.44" cy="195" r="5"/>
<circle class="st0" cx="152.78" cy="68.33" r="5"/>
<circle class="st0" cx="152.78" cy="89.44" r="5"/>
<circle class="st0" cx="152.78" cy="110.56" r="5"/>
<circle class="st0" cx="152.78" cy="173.89" r="5"/>
<circle class="st0" cx="152.78" cy="152.78" r="5"/>
<circle class="st0" cx="152.78" cy="131.67" r="5"/>
<circle class="st0" cx="152.78" cy="47.22" r="5"/>
<circle class="st0" cx="131.67" cy="68.33" r="5"/>
<circle class="st0" cx="131.67" cy="89.44" r="5"/>
<circle class="st0" cx="131.67" cy="110.56" r="5"/>
<circle class="st0" cx="131.67" cy="173.89" r="5"/>
<circle class="st0" cx="131.67" cy="152.78" r="5"/>
<circle class="st0" cx="131.67" cy="131.67" r="5"/>
<circle class="st0" cx="110.56" cy="89.44" r="5"/>
<circle class="st0" cx="110.56" cy="110.56" r="5"/>
<circle class="st0" cx="110.56" cy="173.89" r="5"/>
<circle class="st0" cx="110.56" cy="152.78" r="5"/>
<circle class="st0" cx="110.56" cy="131.67" r="5"/>
<path class="st0" d="M89.44,178.89c-2.76,0-5-2.24-5-5c0-2.76,2.24-5,5-5c2.76,0,5,2.24,5,5"/>
<path class="st0" d="M94.44,173.89c0,2.76-2.24,5-5,5"/>
<path class="st0" d="M94.44,152.78c0,2.76-2.24,5-5,5c-2.76,0-5-2.24-5-5c0-2.76,2.24-5,5-5C92.21,147.78,94.44,150.02,94.44,152.78
	"/>
<path class="st0" d="M94.44,131.67c0,2.76-2.24,5-5,5c-2.76,0-5-2.24-5-5c0-2.76,2.24-5,5-5C92.21,126.67,94.44,128.91,94.44,131.67
	"/>
<circle class="st0" cx="89.44" cy="110.56" r="5"/>
<path class="st0" d="M68.33,178.89c-2.76,0-5-2.24-5-5c0-2.76,2.24-5,5-5c2.76,0,5,2.24,5,5"/>
<path class="st0" d="M73.33,173.89c0,2.76-2.24,5-5,5"/>
<path class="st0" d="M73.33,152.78c0,2.76-2.24,5-5,5c-2.76,0-5-2.24-5-5c0-2.76,2.24-5,5-5C71.09,147.78,73.33,150.02,73.33,152.78
	"/>
<path class="st0" d="M73.33,131.67c0,2.76-2.24,5-5,5c-2.76,0-5-2.24-5-5c0-2.76,2.24-5,5-5C71.09,126.67,73.33,128.91,73.33,131.67
	"/>
<path class="st0" d="M47.22,178.89c-2.76,0-5-2.24-5-5c0-2.76,2.24-5,5-5c2.76,0,5,2.24,5,5"/>
<path class="st0" d="M52.22,173.89c0,2.76-2.24,5-5,5"/>
<path class="st0" d="M52.22,152.78c0,2.76-2.24,5-5,5c-2.76,0-5-2.24-5-5c0-2.76,2.24-5,5-5C49.98,147.78,52.22,150.02,52.22,152.78
	"/>
<path class="st0" d="M31.11,173.89c0,2.76-2.24,5-5,5s-5-2.24-5-5c0-2.76,2.24-5,5-5S31.11,171.13,31.11,173.89"/>
</svg>
